<svg xmlns="http://www.w3.org/2000/svg" width="654" height="344" viewBox="0 0 654 344" role="img" aria-labelledby="mariabela-wordmark-title">
  <title id="mariabela-wordmark-title">Maria Bela Mexico & Italia</title>
  <path d="M342 272 L342 286 L349 286 L349 284 L347 282 L348 272 L349 274 L355 273 L355 282 L353 283 L353 286 L368 286 L370 280 L372 282 L372 286 L405 286 L404 283 L407 280 L409 283 L408 286 L416 286 L416 284 L413 281 L409 270 L405 271 L403 278 L399 284 L397 282 L397 273 L399 272 L399 270 L392 270 L392 272 L394 274 L393 283 L392 281 L389 281 L388 283 L384 282 L384 274 L386 272 L385 270 L379 270 L379 272 L381 274 L381 282 L379 284 L376 281 L372 270 L369 270 L364 282 L361 284 L359 282 L360 272 L362 274 L365 274 L364 270 L350 271 L343 270 Z M323 270 L321 272 L322 277 L320 280 L320 284 L322 286 L329 285 L337 286 L334 279 L336 277 L336 275 L331 276 L328 273 L328 270 Z M283 274 L284 277 L283 282 L287 286 L297 285 L298 282 L302 286 L310 286 L314 282 L314 274 L311 270 L308 271 L307 269 L301 270 L298 274 L297 270 L295 271 L294 269 L289 269 L286 270 Z M306 272 L310 276 L310 280 L307 283 L305 283 L302 279 L302 275 Z M290 272 L292 272 L295 275 L298 276 L297 280 L295 280 L293 283 L290 283 L287 279 L287 275 Z M225 270 L225 272 L227 273 L228 277 L225 286 L232 284 L233 286 L236 286 L237 284 L265 286 L266 281 L267 286 L282 286 L282 284 L280 282 L280 273 L282 272 L282 270 L275 272 L268 270 L267 273 L265 271 L257 271 L255 269 L255 265 L252 265 L246 272 L247 282 L245 284 L243 282 L244 270 L238 271 L235 278 L231 270 L230 271 Z M255 282 L251 282 L254 280 Z M230 279 L231 284 L229 282 Z M273 272 L276 273 L275 283 L272 282 L269 277 Z M260 272 L264 278 L260 283 L259 281 L255 280 L256 274 L258 274 Z M251 275 L252 272 L255 274 Z M160 172 L155 168 L147 165 L131 165 L119 169 L119 164 L121 161 L123 151 L123 147 L121 141 L118 138 L114 137 L105 138 L97 142 L88 150 L91 133 L88 129 L81 129 L78 132 L72 149 L56 205 L57 209 L55 210 L51 233 L51 245 L53 250 L55 251 L57 250 L58 252 L61 252 L62 250 L64 251 L69 247 L71 243 L70 239 L71 236 L68 235 L67 230 L77 184 L90 164 L99 154 L107 148 L112 149 L107 163 L96 180 L90 184 L80 194 L79 196 L79 203 L81 205 L90 204 L109 189 L124 181 L129 180 L133 177 L143 179 L147 182 L149 186 L150 197 L147 201 L146 206 L143 212 L135 223 L123 235 L107 247 L83 260 L64 267 L47 271 L35 272 L24 270 L18 267 L13 262 L11 258 L10 240 L3 239 L1 241 L0 245 L1 254 L0 262 L4 271 L13 279 L23 283 L28 284 L54 284 L55 282 L60 283 L61 282 L65 282 L66 280 L69 281 L83 277 L115 262 L138 245 L151 231 L157 222 L163 209 L164 205 L163 201 L165 200 L165 183 Z M635 94 L633 92 L630 92 L624 97 L616 110 L612 123 L612 153 L614 156 L612 165 L606 163 L606 165 L609 169 L606 171 L606 173 L602 173 L602 176 L608 181 L606 183 L601 178 L597 179 L596 182 L583 173 L581 173 L581 176 L585 180 L583 181 L581 179 L574 178 L572 181 L567 178 L553 174 L553 172 L588 141 L597 131 L629 84 L628 79 L624 79 L621 82 L599 116 L587 131 L562 155 L548 166 L535 152 L522 147 L511 146 L509 144 L502 144 L495 148 L490 155 L488 153 L485 146 L478 139 L471 135 L459 134 L455 137 L446 139 L445 145 L446 151 L451 159 L452 163 L451 165 L455 172 L453 173 L454 178 L452 181 L444 189 L435 192 L429 196 L415 211 L416 206 L410 205 L380 223 L358 233 L354 233 L351 229 L350 221 L351 207 L350 205 L347 205 L346 203 L339 199 L327 199 L323 201 L312 210 L293 221 L274 230 L262 233 L258 231 L254 222 L256 220 L255 214 L257 213 L257 209 L261 195 L276 156 L276 154 L274 153 L275 151 L271 148 L268 148 L267 150 L264 150 L251 179 L242 208 L231 215 L209 225 L194 229 L186 229 L182 227 L181 223 L189 222 L196 216 L198 212 L197 210 L199 209 L199 204 L197 200 L192 198 L186 198 L185 200 L182 199 L178 201 L171 208 L167 217 L167 229 L170 235 L177 240 L192 241 L193 239 L198 240 L216 234 L225 230 L240 221 L241 231 L244 239 L250 244 L263 245 L264 243 L269 244 L278 241 L301 229 L305 228 L304 241 L306 245 L318 246 L325 242 L338 228 L340 239 L345 245 L357 246 L358 244 L362 245 L377 239 L396 228 L410 218 L416 216 L414 221 L415 226 L413 228 L414 245 L421 266 L428 278 L437 286 L445 290 L448 289 L449 291 L453 291 L454 292 L482 293 L488 291 L494 287 L498 291 L504 293 L506 295 L503 301 L503 319 L507 320 L513 319 L514 311 L517 302 L517 294 L519 286 L525 293 L529 295 L542 295 L548 292 L554 286 L557 281 L565 274 L569 267 L571 260 L575 257 L577 250 L580 248 L585 235 L587 242 L588 285 L586 288 L585 297 L578 315 L579 320 L583 322 L592 323 L599 303 L599 232 L597 221 L594 213 L595 210 L603 206 L613 198 L621 184 L622 180 L621 172 L622 159 L620 158 L621 152 L617 136 L625 115 L635 101 Z M451 285 L456 283 L464 283 L468 285 L461 287 L457 287 Z M475 273 L472 276 L464 278 L461 280 L457 278 L452 278 L447 276 L452 274 L464 276 L471 273 Z M538 267 L539 269 L535 274 L531 277 L528 276 L533 270 Z M525 251 L528 251 L527 256 Z M528 247 L530 250 L527 250 Z M498 245 L497 256 L492 268 L490 271 L479 279 L485 272 L491 260 L494 248 Z M438 241 L443 246 L443 250 L436 243 Z M593 240 L594 299 L591 310 L589 313 L589 316 L585 317 L583 316 L589 303 L592 289 L591 258 Z M509 235 L514 248 L515 278 L513 287 L514 294 L512 295 L512 299 L511 300 L512 306 L510 309 L510 314 L508 316 L507 309 L508 308 L508 300 L511 283 L509 275 L510 265 L508 263 L507 241 Z M549 233 L549 247 L546 247 Z M435 233 L436 237 L434 239 L432 235 Z M546 226 L546 233 L544 231 Z M534 222 L536 224 L537 243 L535 245 L532 223 Z M430 215 L426 221 L423 220 L425 217 Z M329 214 L330 216 L322 225 L321 223 Z M564 207 L568 212 L572 222 L574 232 L573 239 L574 244 L571 244 L569 238 L570 232 L569 225 L565 212 L563 209 Z M530 207 L532 209 L530 210 L528 224 L522 244 L523 249 L521 250 L522 264 L520 266 L518 250 L520 248 L522 237 L521 232 L523 231 L526 211 Z M492 206 L498 219 L504 241 L501 247 L502 243 L498 227 L489 207 Z M481 205 L482 209 L480 207 Z M437 207 L445 205 L452 205 L463 209 L474 219 L478 226 L479 232 L481 236 L484 236 L485 226 L489 226 L490 223 L494 233 L494 239 L490 240 L489 247 L482 266 L477 272 L474 272 L474 267 L471 267 L466 270 L456 272 L452 269 L447 268 L440 264 L430 254 L423 240 L425 235 L431 248 L440 257 L450 262 L453 261 L454 263 L461 263 L462 261 L465 262 L469 260 L474 255 L476 251 L476 236 L470 224 L462 216 L452 211 L442 210 L430 213 Z M476 202 L478 201 L480 206 Z M524 196 L526 198 L525 201 Z M434 200 L440 196 L447 195 L449 193 L462 198 L468 203 L466 204 L457 200 L450 199 L438 201 Z M537 192 L548 203 L554 213 L558 224 L560 238 L562 242 L558 265 L554 273 L553 270 L555 266 L557 254 L557 244 L555 240 L556 231 L553 221 L544 205 L538 200 L536 196 Z M503 192 L504 190 L507 192 Z M455 186 L455 191 L453 188 Z M563 186 L565 185 L571 189 L583 200 L587 207 L591 218 L591 222 L592 223 L591 227 L588 218 L580 204 Z M525 183 L519 187 L514 186 L518 185 L522 182 Z M482 182 L484 185 L481 187 L479 185 Z M496 166 L499 169 L497 171 L495 169 Z M517 165 L522 164 L533 170 L535 172 L534 175 L530 171 L528 171 L527 173 L524 173 Z M501 165 L503 163 L510 162 L512 164 L513 168 L512 170 L508 171 Z M458 158 L459 156 L469 162 L464 163 Z M514 156 L521 153 L524 153 L531 156 L547 174 L546 176 L542 177 L541 170 L524 160 L521 161 L520 159 L515 160 Z M512 152 L504 159 L503 157 L508 152 Z M455 141 L458 141 L469 152 L470 157 L463 153 L455 145 L454 143 Z M463 139 L465 138 L471 141 L475 145 L477 149 L479 160 L471 147 Z M541 93 L539 91 L533 91 L513 104 L489 116 L479 119 L476 116 L476 113 L474 111 L474 90 L470 89 L464 85 L452 85 L446 88 L438 95 L422 104 L401 113 L385 117 L381 116 L377 113 L378 104 L383 96 L383 90 L379 87 L386 86 L391 81 L390 74 L387 74 L386 72 L384 72 L378 78 L378 84 L380 86 L374 88 L368 94 L358 99 L352 101 L342 101 L326 90 L317 90 L308 98 L307 95 L309 90 L309 85 L307 83 L301 83 L299 85 L297 92 L295 94 L257 115 L250 118 L244 119 L241 114 L241 92 L229 85 L217 85 L208 91 L199 103 L195 113 L194 126 L196 130 L199 132 L210 131 L215 128 L228 114 L230 124 L234 130 L236 131 L250 131 L270 123 L290 110 L293 111 L290 117 L290 127 L293 130 L299 130 L303 128 L317 105 L320 102 L323 101 L331 107 L339 110 L352 110 L359 108 L364 105 L366 120 L370 125 L377 128 L387 128 L397 126 L406 123 L424 114 L426 112 L430 112 L429 127 L433 132 L442 132 L448 129 L462 115 L464 118 L465 125 L469 130 L471 131 L479 130 L485 131 L494 128 L510 120 L527 109 L540 99 Z M447 108 L448 110 L446 112 L445 110 Z M454 102 L448 109 L447 107 L450 103 Z M219 100 L220 102 L212 111 L211 109 Z M62 31 L63 37 L69 37 L74 41 L72 43 L72 48 L67 63 L51 101 L42 127 L40 136 L41 145 L40 148 L41 150 L43 151 L50 151 L61 140 L100 71 L115 48 L125 36 L126 49 L124 50 L125 57 L123 58 L124 65 L122 66 L122 74 L119 87 L120 92 L118 93 L116 104 L109 119 L109 128 L110 130 L114 133 L118 133 L124 128 L127 122 L129 113 L136 102 L158 75 L177 56 L178 61 L166 103 L167 108 L165 109 L163 122 L163 140 L166 150 L172 157 L182 161 L198 161 L206 159 L221 152 L224 148 L223 143 L217 142 L206 148 L196 151 L191 151 L186 149 L181 143 L179 131 L179 120 L181 119 L180 113 L182 112 L182 108 L185 97 L184 93 L186 92 L185 88 L187 87 L186 83 L188 82 L192 58 L191 49 L188 44 L184 42 L176 42 L170 45 L153 60 L137 79 L135 76 L138 68 L140 51 L140 32 L138 31 L139 27 L135 21 L133 20 L125 20 L115 29 L103 45 L72 96 L71 94 L73 91 L83 62 L84 57 L83 53 L85 52 L85 38 L82 32 L75 28 L66 28 Z" fill="#000" fill-rule="evenodd"/>
</svg>
