<svg xmlns="http://www.w3.org/2000/svg" width="856" height="856" viewBox="0 0 856 856" role="img" aria-labelledby="mariabela-seal-title">
  <title id="mariabela-seal-title">Maria Bela circular seal</title>
  <path d="M396 15 L393 17 L384 16 L382 18 L376 17 L368 18 L366 20 L361 19 L360 21 L356 20 L340 23 L339 25 L336 24 L327 26 L326 28 L323 27 L316 29 L315 31 L312 30 L309 31 L308 33 L305 32 L287 38 L284 41 L282 40 L279 43 L277 42 L262 48 L253 54 L251 53 L229 64 L189 89 L163 109 L147 123 L124 146 L109 163 L79 204 L60 237 L46 267 L35 297 L36 299 L34 300 L35 302 L33 303 L34 305 L32 306 L31 309 L32 312 L30 313 L28 320 L29 323 L27 331 L25 332 L24 336 L25 340 L23 341 L22 345 L23 350 L21 351 L20 357 L21 361 L19 362 L19 368 L18 369 L15 399 L16 415 L14 425 L15 456 L17 459 L16 469 L18 471 L17 477 L18 485 L20 487 L19 492 L20 498 L22 499 L21 504 L22 505 L22 509 L24 510 L23 514 L24 518 L26 519 L25 523 L26 527 L28 528 L27 531 L30 539 L31 545 L33 546 L32 549 L47 590 L65 627 L88 664 L112 695 L137 722 L166 748 L194 769 L230 791 L252 802 L254 801 L263 807 L268 809 L270 808 L273 811 L292 818 L294 817 L295 819 L297 818 L298 820 L300 819 L301 821 L303 820 L304 822 L306 821 L307 823 L313 824 L321 827 L324 826 L328 827 L329 829 L333 830 L337 829 L341 830 L342 832 L346 832 L347 833 L353 834 L357 833 L358 835 L402 840 L425 839 L453 840 L497 835 L498 833 L502 834 L508 833 L509 832 L513 832 L514 830 L518 829 L522 830 L526 829 L527 827 L531 826 L534 827 L542 824 L548 823 L549 821 L551 822 L552 820 L554 821 L555 819 L557 820 L558 818 L560 819 L561 817 L563 818 L582 811 L585 808 L587 809 L592 807 L601 801 L603 802 L625 791 L661 769 L689 748 L718 722 L748 689 L767 664 L790 627 L808 590 L823 549 L822 546 L824 545 L825 539 L828 531 L827 528 L829 527 L830 523 L829 519 L831 518 L832 514 L831 510 L833 509 L833 505 L834 504 L833 499 L835 498 L836 492 L835 487 L837 485 L838 477 L837 471 L839 469 L838 459 L840 456 L841 429 L839 415 L840 399 L837 369 L836 368 L836 362 L834 361 L835 357 L834 351 L832 350 L833 345 L832 341 L830 340 L831 336 L830 332 L828 331 L826 323 L827 320 L825 313 L823 312 L824 309 L823 306 L821 305 L822 303 L820 302 L821 300 L819 299 L820 297 L809 267 L795 237 L776 204 L746 163 L731 146 L708 123 L692 109 L666 89 L626 64 L604 53 L602 54 L593 48 L578 42 L576 43 L573 40 L571 41 L568 38 L550 32 L547 33 L546 31 L543 30 L540 31 L539 29 L532 27 L529 28 L528 26 L519 24 L516 25 L515 23 L499 20 L495 21 L494 19 L489 20 L487 18 L479 17 L473 18 L471 16 L462 17 L459 15 L449 16 L439 14 L416 14 L406 16 Z M380 37 L387 38 L400 36 L421 35 L455 36 L468 38 L475 37 L477 39 L483 38 L485 40 L496 42 L501 41 L502 43 L507 44 L511 43 L515 44 L516 46 L521 47 L524 46 L525 48 L528 49 L531 48 L532 50 L539 52 L542 51 L543 53 L545 52 L546 54 L548 53 L549 55 L551 54 L552 56 L554 55 L555 57 L557 56 L558 58 L560 57 L561 59 L576 65 L578 64 L585 69 L587 68 L589 70 L629 91 L668 118 L697 143 L722 169 L746 199 L768 233 L784 264 L791 282 L794 285 L793 287 L799 302 L804 320 L806 321 L805 324 L806 327 L808 328 L807 331 L808 335 L810 336 L809 340 L810 344 L812 345 L811 349 L812 354 L814 355 L813 360 L815 361 L814 365 L816 380 L818 382 L817 388 L819 391 L818 401 L820 450 L818 453 L818 465 L816 474 L817 481 L815 483 L816 488 L814 489 L814 494 L812 501 L813 505 L811 506 L810 510 L811 514 L809 515 L808 519 L809 523 L807 524 L806 527 L807 530 L805 531 L803 538 L804 541 L802 542 L803 544 L801 545 L802 547 L800 548 L801 550 L799 551 L800 553 L798 554 L799 556 L797 557 L798 559 L795 562 L792 570 L793 572 L791 573 L787 582 L788 584 L783 591 L784 593 L782 595 L763 630 L742 661 L719 689 L689 719 L661 742 L633 761 L616 771 L588 785 L569 793 L534 804 L533 806 L530 805 L527 806 L526 808 L522 809 L518 808 L514 809 L513 811 L510 810 L505 811 L504 813 L500 812 L493 814 L488 814 L487 816 L481 815 L473 816 L471 818 L464 817 L450 818 L447 820 L408 820 L405 818 L391 817 L384 818 L382 816 L374 815 L368 816 L367 814 L362 814 L355 812 L351 813 L350 811 L345 810 L342 811 L341 809 L337 808 L333 809 L329 808 L328 806 L325 805 L322 806 L321 804 L294 796 L267 785 L232 767 L194 742 L166 719 L136 689 L113 661 L89 625 L73 595 L71 593 L72 591 L67 584 L68 582 L63 572 L60 562 L57 559 L58 557 L56 556 L57 554 L55 553 L56 551 L54 550 L55 548 L53 547 L54 545 L52 544 L53 542 L51 541 L52 538 L50 531 L48 530 L49 527 L48 524 L46 523 L47 519 L46 515 L44 514 L45 510 L44 506 L42 505 L43 501 L41 494 L41 489 L39 488 L40 483 L38 481 L39 474 L37 465 L37 453 L35 450 L37 401 L36 391 L38 388 L37 382 L39 380 L41 365 L40 361 L42 360 L41 355 L43 354 L44 349 L43 345 L45 344 L46 340 L45 336 L47 335 L48 331 L47 328 L49 327 L50 324 L49 321 L51 320 L55 305 L62 287 L61 285 L64 282 L71 264 L93 223 L115 191 L143 158 L169 133 L199 109 L226 91 L266 70 L268 68 L270 69 L277 64 L279 65 L294 59 L295 57 L297 58 L298 56 L300 57 L301 55 L303 56 L304 54 L306 55 L307 53 L309 54 L310 52 L312 53 L313 51 L316 52 L323 50 L324 48 L327 49 L330 48 L331 46 L334 47 L339 46 L340 44 L344 43 L348 44 L353 43 L354 41 L359 42 L370 40 L372 38 L378 39 Z M472 540 L472 542 L478 542 L477 539 L478 537 L482 537 L482 542 L515 542 L515 540 L513 538 L517 536 L519 538 L519 542 L525 542 L524 540 L525 539 L522 535 L519 526 L516 526 L514 530 L515 532 L509 540 L507 538 L507 529 L509 528 L509 526 L502 526 L502 528 L504 529 L503 539 L502 537 L499 537 L498 539 L494 538 L494 529 L496 528 L495 526 L489 526 L489 528 L491 529 L491 538 L489 540 L484 535 L485 533 L482 526 L479 526 L475 535 L476 537 Z M453 526 L452 528 L452 542 L458 542 L458 528 L459 530 L465 529 L465 538 L463 540 L463 542 L470 542 L470 528 L472 530 L475 530 L474 526 L460 527 Z M432 527 L433 528 L431 529 L432 533 L430 536 L431 541 L447 542 L447 540 L445 540 L444 535 L446 533 L446 531 L441 532 L440 535 L438 533 L439 528 L438 526 Z M434 538 L435 536 L437 538 Z M336 528 L338 533 L335 542 L341 542 L342 539 L343 542 L346 542 L347 539 L348 542 L354 542 L354 526 L348 527 L345 534 L341 526 Z M340 535 L341 540 L339 538 Z M393 530 L394 533 L393 538 L394 540 L398 542 L407 541 L408 538 L412 542 L419 542 L424 537 L424 530 L421 526 L418 527 L417 525 L410 527 L408 530 L406 526 L405 527 L404 525 L399 525 L396 526 Z M418 529 L420 532 L420 536 L417 539 L415 539 L412 535 L412 531 Z M400 528 L402 528 L405 531 L408 532 L407 539 L406 537 L403 539 L400 539 L398 537 L397 531 Z M356 528 L356 542 L375 542 L376 537 L377 542 L391 542 L390 526 L385 528 L378 526 L377 530 L375 526 L367 527 L365 525 L364 521 L362 521 L359 526 L357 526 Z M365 536 L365 539 L361 538 Z M383 528 L386 529 L385 540 L382 538 L379 533 Z M370 528 L374 534 L370 539 L369 537 L365 536 L366 530 L368 530 Z M361 531 L362 528 L364 528 L366 530 Z M272 431 L268 426 L260 422 L257 423 L256 421 L241 421 L227 424 L232 413 L233 404 L231 397 L229 395 L223 393 L216 394 L209 397 L198 406 L196 403 L198 402 L197 400 L199 399 L200 396 L199 393 L201 392 L201 390 L198 385 L191 385 L188 388 L180 412 L181 415 L179 416 L176 425 L177 428 L175 429 L173 435 L174 438 L172 439 L170 446 L171 449 L167 465 L165 466 L163 476 L164 480 L162 481 L162 488 L161 489 L161 501 L162 504 L165 507 L167 506 L169 508 L171 508 L172 506 L174 507 L179 503 L181 499 L181 493 L179 491 L175 490 L176 485 L178 484 L177 480 L179 479 L178 475 L180 474 L184 455 L183 452 L185 451 L186 447 L185 443 L204 415 L212 407 L220 403 L222 405 L222 407 L216 421 L206 436 L200 440 L190 450 L191 452 L189 453 L189 459 L191 461 L197 461 L204 457 L210 451 L222 443 L238 436 L239 434 L241 435 L243 433 L251 434 L255 436 L260 441 L260 453 L253 468 L247 477 L232 492 L217 503 L191 518 L189 517 L172 523 L171 525 L169 524 L168 526 L164 525 L163 527 L159 526 L158 528 L145 528 L129 524 L123 518 L121 514 L120 496 L114 495 L113 497 L112 496 L110 501 L111 510 L110 517 L112 518 L111 521 L114 527 L120 533 L130 538 L133 537 L134 539 L138 540 L164 540 L165 538 L169 539 L175 538 L176 536 L179 537 L182 536 L183 534 L186 535 L189 534 L190 532 L192 533 L195 532 L198 529 L200 530 L228 516 L242 506 L252 497 L267 478 L272 467 L271 465 L273 464 L274 461 L273 457 L275 456 L275 439 Z M304 381 L306 382 L306 386 L309 388 L317 388 L325 384 L338 370 L339 376 L341 377 L340 380 L343 385 L346 387 L360 387 L363 386 L364 384 L366 385 L367 383 L369 384 L376 381 L392 372 L400 366 L403 367 L400 374 L400 383 L403 386 L409 386 L415 381 L426 362 L430 358 L433 357 L440 362 L449 366 L461 366 L462 364 L465 365 L466 363 L468 364 L474 361 L475 373 L478 379 L484 383 L487 382 L488 384 L497 384 L499 382 L503 383 L518 378 L532 371 L534 369 L540 368 L539 383 L544 388 L551 388 L558 385 L566 378 L572 370 L574 373 L575 381 L579 386 L581 387 L594 387 L595 385 L598 386 L604 384 L628 371 L645 359 L651 353 L651 350 L650 348 L644 347 L602 372 L600 371 L595 373 L592 376 L587 374 L586 369 L584 367 L584 346 L582 347 L576 342 L574 343 L573 341 L562 341 L555 345 L548 351 L526 364 L524 363 L514 368 L506 370 L505 372 L502 371 L494 373 L490 372 L487 369 L486 362 L493 352 L493 346 L490 344 L485 344 L480 349 L471 355 L469 354 L462 357 L452 357 L449 356 L438 347 L435 346 L428 346 L424 348 L418 354 L417 351 L419 346 L419 342 L418 340 L411 339 L408 343 L407 348 L402 352 L365 372 L357 375 L354 375 L350 371 L351 349 L350 347 L339 341 L328 341 L325 342 L317 348 L309 359 L310 361 L307 364 L305 369 Z M565 357 L556 368 L555 366 L559 360 Z M332 356 L322 367 L321 365 L323 362 Z M744 349 L743 350 L738 349 L734 353 L724 371 L725 374 L723 375 L722 379 L722 409 L724 412 L721 421 L717 420 L717 423 L719 425 L716 427 L716 429 L712 430 L712 432 L717 435 L716 439 L711 434 L707 435 L705 438 L694 430 L692 430 L692 433 L695 436 L693 437 L688 434 L685 434 L684 438 L677 434 L663 430 L663 428 L689 405 L706 388 L716 375 L724 361 L739 340 L738 335 L734 335 L731 338 L710 371 L699 385 L681 403 L658 423 L646 409 L637 405 L635 406 L632 403 L621 402 L619 400 L612 400 L603 406 L601 409 L602 411 L599 411 L595 402 L583 392 L581 393 L578 390 L569 390 L565 393 L556 395 L555 401 L557 403 L556 406 L558 407 L557 409 L561 415 L561 420 L566 428 L563 429 L564 434 L553 447 L551 446 L550 448 L548 447 L539 452 L531 460 L530 462 L531 463 L528 467 L525 467 L526 463 L524 461 L520 461 L492 478 L468 489 L464 489 L461 485 L461 479 L460 478 L461 463 L460 461 L451 456 L449 457 L448 455 L438 455 L435 456 L422 466 L387 486 L385 485 L378 488 L372 489 L369 488 L367 486 L364 478 L366 476 L365 470 L367 469 L369 460 L368 457 L370 456 L374 444 L373 442 L376 439 L380 428 L379 426 L381 425 L386 412 L386 410 L384 409 L385 407 L383 405 L381 406 L380 404 L378 404 L377 406 L374 406 L371 412 L372 414 L366 423 L367 425 L364 428 L365 430 L362 433 L363 435 L360 438 L356 450 L357 453 L355 461 L351 465 L343 470 L322 480 L305 485 L295 484 L293 485 L291 479 L299 478 L306 472 L308 468 L307 466 L309 464 L309 460 L307 456 L302 454 L296 454 L295 456 L292 455 L288 457 L281 464 L278 471 L279 473 L277 474 L277 484 L279 485 L278 487 L280 491 L287 496 L291 495 L292 497 L301 497 L321 492 L350 477 L351 486 L353 487 L352 490 L354 491 L353 493 L354 495 L360 500 L372 501 L374 499 L378 500 L379 498 L382 499 L385 498 L388 495 L390 496 L414 483 L416 485 L414 497 L418 502 L420 501 L427 502 L428 500 L430 501 L432 500 L448 484 L450 494 L452 495 L451 497 L455 501 L466 502 L468 500 L471 501 L472 499 L475 500 L496 490 L513 479 L526 468 L527 473 L525 474 L526 477 L524 478 L525 482 L523 484 L523 495 L524 496 L524 500 L526 501 L527 505 L526 508 L532 524 L538 534 L547 542 L556 546 L558 545 L559 547 L563 547 L564 548 L591 549 L595 548 L604 543 L608 547 L612 548 L616 551 L613 558 L614 575 L617 576 L623 575 L624 567 L626 562 L625 558 L627 557 L628 549 L627 542 L630 542 L631 545 L637 550 L639 549 L640 551 L652 551 L656 549 L675 530 L678 525 L677 523 L679 522 L681 516 L684 514 L687 506 L692 499 L693 496 L692 494 L695 491 L697 497 L698 541 L696 544 L695 553 L691 563 L692 565 L690 566 L691 568 L688 571 L689 576 L693 576 L694 578 L702 578 L705 571 L704 569 L707 566 L706 563 L708 562 L709 559 L709 489 L707 477 L704 470 L705 466 L716 460 L726 450 L730 442 L729 440 L731 439 L732 436 L731 428 L732 416 L730 414 L731 409 L730 408 L730 404 L728 403 L729 399 L727 392 L729 390 L730 383 L736 369 L745 357 Z M561 541 L566 539 L574 539 L578 541 L572 543 L567 543 Z M560 538 L560 541 L557 540 Z M606 529 L607 532 L603 533 Z M649 522 L650 524 L644 531 L641 533 L637 533 L644 524 L646 525 Z M653 509 L656 509 L655 512 Z M636 503 L639 503 L640 506 L638 508 L639 512 L636 512 L635 507 Z M644 500 L646 506 L643 506 Z M608 501 L607 512 L601 526 L595 533 L589 535 L595 528 L600 518 L599 516 L601 515 L604 507 L603 503 Z M545 498 L548 497 L555 505 L552 506 Z M704 496 L703 557 L704 560 L702 561 L699 572 L694 573 L693 571 L696 566 L695 564 L698 561 L697 559 L700 556 L702 545 L701 496 Z M619 491 L622 494 L621 496 L623 497 L622 499 L624 500 L623 503 L625 517 L625 535 L623 544 L624 550 L622 551 L621 557 L622 562 L617 571 L618 555 L621 539 L619 531 L620 522 L618 519 L619 499 L617 497 Z M545 489 L546 493 L544 495 L541 492 Z M656 482 L657 487 L659 489 L659 503 L656 503 L656 490 L654 487 Z M642 479 L646 479 L647 499 L645 501 L643 492 Z M562 477 L559 480 L555 481 L547 478 L550 479 L554 478 L558 475 Z M561 476 L562 474 L565 476 Z M442 470 L432 481 L431 479 L432 477 Z M640 463 L642 465 L639 472 L640 476 L638 477 L637 481 L638 485 L637 489 L635 490 L634 493 L635 496 L634 500 L632 501 L633 505 L631 507 L632 520 L630 522 L628 506 L630 504 L631 497 L630 493 L632 492 L631 488 L633 487 L635 470 L636 467 Z M673 461 L677 466 L683 481 L684 500 L681 500 L681 496 L679 494 L680 488 L679 487 L679 482 L677 481 L678 477 L676 471 L673 468 L674 466 L672 463 Z M602 462 L607 472 L612 490 L614 491 L613 505 L611 503 L612 499 L608 484 L606 483 L607 481 L606 478 L603 475 L604 473 L599 464 Z M591 461 L592 465 L590 463 Z M549 461 L553 462 L562 461 L569 463 L576 467 L582 472 L587 479 L587 481 L590 484 L589 487 L591 492 L594 491 L595 482 L598 482 L600 479 L603 482 L602 485 L606 492 L605 494 L600 496 L601 499 L599 500 L598 504 L599 507 L597 508 L594 518 L588 527 L578 535 L574 534 L571 536 L557 532 L562 530 L574 532 L578 531 L584 528 L584 523 L581 523 L573 528 L566 528 L553 522 L543 514 L538 507 L535 498 L533 496 L533 491 L536 491 L539 501 L541 504 L550 513 L555 516 L557 515 L560 518 L563 517 L565 519 L570 519 L572 517 L575 518 L579 516 L585 509 L584 507 L586 506 L586 493 L584 492 L585 490 L584 487 L579 479 L570 471 L561 467 L553 466 L547 467 L543 469 L536 477 L533 476 L539 469 Z M577 460 L579 459 L581 461 L579 462 Z M586 458 L590 458 L590 462 Z M634 451 L636 454 L635 457 L633 454 Z M541 458 L552 450 L556 451 L559 449 L563 451 L566 450 L574 455 L578 459 L573 460 L570 457 L567 458 L566 456 L560 455 Z M647 448 L655 455 L662 465 L665 473 L668 476 L667 479 L668 482 L670 483 L669 487 L670 494 L672 498 L669 514 L670 518 L664 529 L663 522 L665 521 L667 510 L667 500 L665 496 L666 488 L665 483 L656 464 L647 455 L646 453 Z M615 446 L617 448 L615 450 L613 448 Z M664 444 L665 442 L667 444 Z M565 442 L565 447 L562 444 Z M673 442 L675 441 L680 444 L693 456 L698 465 L699 469 L701 470 L700 472 L702 478 L699 483 L700 481 L698 480 L699 478 L698 475 L695 472 L696 470 L692 463 Z M592 438 L594 441 L591 444 L589 441 Z M635 437 L635 440 L629 443 L624 442 Z M576 434 L577 436 L575 438 L574 436 Z M606 422 L609 425 L607 428 L605 425 Z M626 420 L629 419 L632 420 L647 429 L644 431 L640 427 L638 427 L637 429 L634 429 Z M612 419 L620 418 L623 422 L621 428 L618 428 Z M569 412 L579 418 L574 419 L569 416 Z M622 414 L630 408 L641 412 L657 430 L656 432 L652 433 L651 430 L652 428 L642 420 L634 416 L631 417 L630 415 L625 416 Z M624 407 L617 414 L615 415 L612 414 L619 407 L621 406 Z M565 397 L568 397 L572 400 L579 408 L580 413 L573 409 L565 401 L564 399 Z M572 395 L575 394 L581 397 L585 401 L588 407 L589 416 L587 414 L584 407 Z M500 330 L497 330 L496 328 L492 329 L488 334 L488 340 L490 342 L498 341 L500 339 L499 337 L501 336 Z M172 287 L173 293 L180 293 L184 297 L182 300 L181 305 L182 308 L180 309 L181 311 L179 312 L174 325 L175 327 L172 330 L173 332 L170 335 L164 350 L165 352 L162 355 L153 380 L154 383 L153 387 L151 388 L151 392 L150 393 L150 404 L153 407 L160 407 L171 396 L210 327 L225 304 L235 291 L236 305 L234 307 L233 315 L234 321 L232 323 L229 344 L230 348 L228 349 L227 353 L228 357 L220 372 L219 376 L219 383 L221 384 L220 386 L222 388 L224 387 L225 389 L227 389 L228 387 L230 388 L233 385 L237 377 L236 375 L238 374 L239 369 L243 362 L274 324 L287 312 L288 322 L286 323 L285 326 L286 329 L284 330 L282 337 L283 340 L281 341 L280 344 L281 347 L278 359 L276 360 L277 364 L275 365 L275 369 L274 370 L273 395 L275 396 L274 400 L275 403 L281 412 L292 417 L307 417 L308 415 L312 414 L315 415 L316 413 L318 414 L333 406 L334 404 L333 399 L327 398 L316 404 L306 407 L300 407 L296 405 L289 396 L289 376 L291 374 L290 369 L292 368 L292 363 L295 353 L294 349 L296 348 L295 344 L297 343 L296 339 L298 338 L297 334 L299 333 L298 329 L300 328 L302 314 L301 305 L298 300 L294 298 L287 298 L286 300 L284 299 L280 301 L255 325 L247 335 L245 332 L247 330 L249 316 L250 289 L248 287 L249 284 L247 283 L248 281 L245 277 L243 276 L236 276 L232 278 L218 294 L199 323 L182 353 L181 350 L185 341 L184 339 L187 336 L194 313 L193 309 L195 308 L195 295 L193 290 L187 285 L177 284 L176 286 L174 285 Z" fill="#000" fill-rule="evenodd"/>
</svg>
